<?xml version="1.0" encoding="utf-8"?>
<!-- Generator: Adobe Illustrator 19.0.0, SVG Export Plug-In . SVG Version: 6.00 Build 0)  -->
<svg version="1.1" id="Layer_1" xmlns="http://www.w3.org/2000/svg" xmlns:xlink="http://www.w3.org/1999/xlink" x="0px" y="0px"
	 viewBox="-587 589 24 24" style="enable-background:new -587 589 24 24;" xml:space="preserve">
<style type="text/css">
	.st0{fill:#95B3D0;}
</style>
<path class="st0" d="M-563.3,596.6l-7.3-7.3c-0.4-0.4-1.1-0.4-1.5,0l-14.5,14.6c-0.4,0.4-0.4,1.1,0,1.5l7.3,7.3
	c0.3,0.3,1,0.3,1.4-0.1l14.6-14.6C-562.9,597.6-562.9,597-563.3,596.6z M-578.6,610.4l-5.8-5.8l0.7-0.7l5.8,5.8L-578.6,610.4z
	 M-577.2,609l-5.8-5.9l0.7-0.7l5.8,5.8L-577.2,609z M-575.7,607.5l-5.8-5.8l0.7-0.7l5.8,5.8L-575.7,607.5z M-574.3,606l-5.8-5.8
	l0.7-0.7l5.8,5.8L-574.3,606z M-572.8,604.6l-5.8-5.8l7.3-7.3l5.8,5.8L-572.8,604.6z"/>
</svg>
