<?xml version="1.0" encoding="utf-8"?>
<!-- Generator: Adobe Illustrator 19.0.0, SVG Export Plug-In . SVG Version: 6.00 Build 0)  -->
<svg version="1.1" id="Layer_1" xmlns="http://www.w3.org/2000/svg" xmlns:xlink="http://www.w3.org/1999/xlink" x="0px" y="0px"
	 viewBox="-587 589 24 15.2" style="enable-background:new -587 589 24 15.2;" xml:space="preserve">
<style type="text/css">
	.st0{fill:#95B3D0;}
</style>
<g>
	<path class="st0" d="M-581,589h3.1c0.5,0,0.9,0.1,1.1,0.3c0.2,0.2,0.3,0.6,0.3,1.1v1.6c0,0.5-0.1,0.9-0.3,1.1s-0.6,0.3-1.1,0.3
		h-2.8c-0.4,0-0.6,0.1-0.8,0.3s-0.3,0.5-0.3,0.8v0.6h4.4c0.5,0,0.9,0.1,1.1,0.3c0.2,0.2,0.3,0.6,0.3,1.1v6c0,0.5-0.1,0.9-0.3,1.1
		c-0.2,0.2-0.6,0.3-1.1,0.3h-8.2c-0.5,0-0.9-0.1-1.1-0.3c-0.2-0.2-0.3-0.6-0.3-1.1v-7.6c0-2,0.5-3.6,1.6-4.6
		C-584.3,589.5-582.8,589-581,589z M-568.1,589h3.1c0.5,0,0.9,0.1,1.1,0.3c0.2,0.2,0.3,0.6,0.3,1.1v1.6c0,0.5-0.1,0.9-0.3,1.1
		c-0.2,0.2-0.6,0.3-1.1,0.3h-2.8c-0.4,0-0.6,0.1-0.8,0.3c-0.2,0.2-0.3,0.5-0.3,0.8v0.6h4.4c0.5,0,0.9,0.1,1.1,0.3
		c0.2,0.2,0.3,0.6,0.3,1.1v6c0,0.5-0.1,0.9-0.3,1.1c-0.2,0.2-0.6,0.3-1.1,0.3h-8.2c-0.5,0-0.9-0.1-1.1-0.3c-0.2-0.2-0.3-0.6-0.3-1.1
		v-7.6c0-2,0.5-3.6,1.6-4.6C-571.3,589.5-569.9,589-568.1,589z"/>
</g>
</svg>
