<?xml version="1.0" encoding="utf-8"?>
<!-- Generator: Adobe Illustrator 19.0.0, SVG Export Plug-In . SVG Version: 6.00 Build 0)  -->
<svg version="1.1" xmlns="http://www.w3.org/2000/svg" xmlns:xlink="http://www.w3.org/1999/xlink" x="0px" y="0px"
	 viewBox="0 0 60 60" style="enable-background:new 0 0 60 60;" xml:space="preserve">
<style type="text/css">
	.st0{fill:#476783;}
</style>
<g id="Layer_1">
</g>
<g id="Twitter">
	<g id="XMLID_8_">
		<path id="XMLID_55_" class="st0" d="M30,0C13.4,0,0,13.4,0,30c0,16.6,13.4,30,30,30c16.6,0,30-13.4,30-30C60,13.4,46.6,0,30,0z
			 M46.4,20c-0.1,0.2-0.9,1.1-1.7,1.9c-1.3,1.3-1.4,1.5-1.4,2.6c0,1.7-0.8,5.3-1.6,7.2c-1.5,3.7-4.7,7.5-7.9,9.4
			c-4.5,2.7-10.6,3.4-15.6,1.8c-1.7-0.5-4.6-1.9-4.6-2.1c0-0.1,0.9-0.2,2-0.2c2.2,0,4.5-0.7,6.4-1.8l1.3-0.8l-1.5-0.5
			c-2.1-0.7-4-2.4-4.5-4C17,33,17.1,33,18.4,33l1.4,0l-1.2-0.6c-1.4-0.7-2.6-1.9-3.3-3.1c-0.5-0.9-1-3.1-0.9-3.2
			c0-0.1,0.5,0.1,1.1,0.3c1.6,0.6,1.9,0.5,0.9-0.6c-1.8-1.8-2.3-4.6-1.5-7.1l0.4-1.2L17,19c3.2,3.2,7,5,11.4,5.6l1.2,0.1l-0.1-1.2
			c-0.2-3.1,1.7-5.9,4.7-6.9c1.1-0.4,3-0.4,4.2-0.1c0.5,0.1,1.4,0.6,2,1.1l1.2,0.8l1.3-0.4c0.7-0.2,1.7-0.6,2.1-0.8
			c0.4-0.2,0.8-0.3,0.8-0.3c0,0.4-0.9,1.8-1.6,2.6c-1,1.1-0.7,1.2,1.3,0.5C46.6,19.6,46.6,19.6,46.4,20z"/>
	</g>
</g>
</svg>
